<?xml version="1.0" standalone="no"?>
<!DOCTYPE svg PUBLIC "-//W3C//DTD SVG 1.1//EN"    "http://www.w3.org/Graphics/SVG/1.1/DTD/svg11.dtd">
<svg version="1.1" xmlns="http://www.w3.org/2000/svg" preserveAspectRatio="xMinYMin" viewBox="0 0 391.59 335.97">
<g stroke-linejoin="round" fill-rule="evenodd">
<path d="M2.25,0.00 l-2.25,0 0,1.62 0,0 0,0 0,0 0,0.09 0,0.09 0,0.09 0,0.09 0.09,0.27 0,0.18 0.09,0.18 0.09,0 0,0.09 0,0 0.09,0.09 0.09,0 0.09,0.09 0.09,0.09 0.18,0 0.18,0.09 0.18,0 0,0 0.09,0 0.09,0 0.09,-0.09 0.18,0 0.09,0 0.09,-0.09 0,0 0.09,-0.09 0,0 0.09,-0.09 0,-0.09 0.09,-0.09 0.09,-0.09 0,-0.09 0,0 0,0 0,-0.09 0.09,-0.09 0,-0.09 0,-0.18 0,-0.09 0,-0.27 0,-1.53 z" style="fill:#7373DE;stroke:#7373DE;stroke-width:1"/>
<path d="M2.25,14.04 l-2.07,0 0,1.80 0,0 0,0 0,0.09 0,0 0,0.09 0.09,0.18 0,0.09 0,0.18 0,0.18 0.09,0.09 0,0 0,0.09 0,0 0.09,0.09 0,0.09 0.09,0.09 0.09,0.09 0.09,0 0,0 0,0.09 0.09,0 0.09,0 0.09,0.09 0.09,0 0.09,0 0.09,0 0.09,0 0.09,0 0.09,0 0.09,-0.09 0.18,0 0.09,-0.09 0.09,-0.09 0,-0.09 0.09,0 0,-0.09 0.09,-0.09 0,-0.18 0.09,-0.18 0,-0.18 0,-0.27 0,-1.98 z" style="fill:#7373DE;stroke:#7373DE;stroke-width:1"/>
<path d="M97.29,332.46 l-1.26,0 0,1.53 1.17,0 0,0 0.09,0 0,0 0.18,0 0.09,0 0.18,-0.09 0.09,0 0.09,-0.09 0,0 0,0 0.09,0 0,-0.09 0.09,-0.09 0,-0.09 0.09,-0.09 0,-0.09 0,-0.18 0,0 0,0 0,-0.09 0,0 0,-0.09 -0.09,-0.09 0,-0.09 -0.09,-0.09 0,0 0,0 0,-0.09 -0.09,0 0,-0.09 -0.09,0 -0.09,-0.09 -0.09,0 0,0 0,0 0,0 -0.09,0 -0.09,0 -0.09,0 -0.09,0 z" style="fill:#7373DE;stroke:#7373DE;stroke-width:1"/>
<path d="M88.56,332.37 l0,0 0,0 0,0 0,0.09 0,0 0,0.09 0,0.09 -0.09,0.18 0,0.09 -0.09,0.18 0,0.18 -0.54,1.26 1.53,0 -0.45,-1.26 0,0 0,0 0,0 0,-0.09 -0.09,0 0,-0.09 0,-0.09 -0.09,-0.18 -0.09,-0.18 0,-0.09 -0.09,-0.18 z" style="fill:#7373DE;stroke:#7373DE;stroke-width:1"/>
<path d="M104.22,332.37 l0,0 0,0 -0.09,0 -0.09,0 -0.09,0.09 -0.09,0 -0.09,0.09 -0.09,0.09 0,0 0,0 0,0.09 -0.09,0 0,0 0,0.09 0,0 -0.09,0.09 0,0.09 0,0.09 0,0.09 -0.09,0.18 0,0.09 0,0.18 0,0.18 0,0.18 0,0.18 0,0 0,0.09 0,0 0,0.09 0,0.09 0,0.09 0,0.09 0,0.18 0,0.18 0.09,0.27 0,0.09 0,0.09 0.09,0.18 0,0 0,0 0.09,0 0,0.09 0,0.09 0.09,0 0.09,0.09 0.18,0.09 0.09,0 0.09,0 0,0 0.09,0 0,0 0.09,0 0.09,0 0.09,-0.09 0.09,0 0.09,-0.09 0,0 0.09,-0.09 0,-0.09 0,0 0.09,0 0,0 0,0 0,-0.09 0,-0.09 0.09,0 0,-0.09 0,-0.09 0,-0.09 0.09,-0.18 0,-0.09 0,-0.18 0,-0.18 0,-0.18 0,-0.18 0,0 0,-0.09 0,0 0,-0.09 0,-0.09 0,-0.09 0,-0.09 0,-0.18 0,-0.18 -0.09,-0.27 0,-0.09 -0.09,-0.09 0,-0.09 -0.09,-0.09 0,0 0,0 0,-0.09 -0.09,-0.09 0,0 -0.18,-0.09 -0.09,-0.09 -0.09,0 -0.09,0 -0.09,0 z" style="fill:#7373DE;stroke:#7373DE;stroke-width:1"/>
<path d="M100.89,192.24 l-1.26,0 -0.18,0 0,0 -0.09,0.09 0,0 0,0 -0.09,0 0,0 -0.09,0 -0.18,0.09 0,0 0,0 0,0 0,0.09 -0.09,0 0,0 -0.09,0.09 0,0.09 0,0 0,0 0,0 -0.09,0.09 0,0 0,0.09 0,0.09 0,0.09 0,0 0,0 0,0.09 0,0 0,0.09 0,0.09 0.09,0.09 0,0.09 0,0 0.09,0 0,0 0,0.09 0.09,0 0.09,0.09 0,0 0.09,0.09 0,0 0.09,0 0,0 0.09,0 0.09,0 0.09,0 0.18,0 1.17,0 0,-1.53 z" style="fill:#7373DE;stroke:#7373DE;stroke-width:1"/>
<path d="M100.89,194.31 l-1.08,0 -0.09,0 -0.09,0 -0.09,0 -0.09,0.09 -0.09,0 0,0 0,0 -0.09,0 0,0 -0.09,0.09 -0.09,0 0,0.09 -0.09,0 0,0 0,0.09 0,0 0,0 -0.09,0.09 0,0.09 0,0.09 0,0.09 0,0 0,0 0,0.09 0,0 0,0.09 0.09,0.09 0,0 0,0.09 0,0 0,0 0.09,0.09 0,0 0.09,0 0,0.09 0.09,0 0.09,0.09 0,0 0,0 0.09,0 0,0 0.09,0 0.18,0 0.09,0 1.08,0 0,-1.35 z" style="fill:#7373DE;stroke:#7373DE;stroke-width:1"/>
<path d="M89.10,192.15 l0,0 0,0 -0.09,0 -0.09,0 -0.09,0.09 -0.09,0 -0.09,0.09 -0.09,0 0,0.09 -0.09,0.09 0,0 0,0 0,0 0,0 -0.09,0.09 0,0.09 0,0 0,0.09 -0.09,0.09 0,0.09 0,0.18 0,0.09 0,0.18 -0.09,0.18 0,0.18 0,0.18 0,0 0,0.09 0,0 0,0.09 0,0.09 0,0.09 0.09,0.09 0,0.18 0,0.18 0.09,0.27 0,0.09 0,0.09 0.09,0.09 0,0.09 0,0 0,0 0.09,0.09 0,0.09 0.09,0 0.09,0.09 0.09,0.09 0.18,0 0.09,0 0,0 0.09,0 0,0 0.09,0 0.09,0 0.09,-0.09 0.09,0 0.09,-0.09 0.09,-0.09 0,0 0,0 0,-0.09 0,0 0,0 0.09,-0.09 0,0 0,-0.09 0.09,-0.09 0,-0.09 0,-0.09 0,-0.18 0.09,-0.09 0,-0.18 0,-0.18 0,-0.18 0,-0.18 0,0 0,-0.09 0,0 0,-0.09 0,-0.09 0,-0.09 0,-0.09 0,-0.18 -0.09,-0.18 0,-0.27 0,-0.09 -0.09,-0.09 0,-0.18 -0.09,0 0,0 0,0 0,-0.09 -0.09,-0.09 -0.09,0 -0.09,-0.09 -0.09,-0.09 -0.09,0 -0.09,0 -0.09,0 z" style="fill:#7373DE;stroke:#7373DE;stroke-width:1"/>
<path d="M161.82,124.74 l-0.81,0.36 0,0 0,0 0,0 -0.09,0 0,0 0,0 -0.09,0 -0.09,0.09 -0.09,0 -0.09,0.09 -0.18,0 0.09,0 0,0 0,0 0,0 0,0 0.09,0 0,0 0.09,0.09 0.09,0 0.18,0 0.09,0.09 0.81,0.27 0,-0.99 z" style="fill:#7373DE;stroke:#7373DE;stroke-width:1"/>
<path d="M161.73,112.68 l-0.18,0 -0.09,0 -0.09,0 0,0 -0.09,0 -0.09,0 -0.18,0 -0.09,0.09 -0.09,0 -0.09,0 -0.09,0 0,0.09 0,0 0,0 0,0 -0.09,0.09 0,0 -0.09,0.09 0,0.09 -0.09,0 0,0.09 0,0 0,0 0,0 0,0.09 0,0 0,0 0.09,0.09 0,0.09 0,0 0.09,0.09 0,0 0.09,0.09 0,0 0,0 0,0 0,0 0.09,0 0,0 0,0 0.09,0.09 0.09,0 0,0 0.09,0 0.09,0 0.09,0 0.18,0.09 0.09,0 0.18,0 0.09,0 0,0 0.09,0 0.09,0 0.09,-0.09 0.09,0 0.18,0 0.09,0 0.09,-0.09 0,0 0.09,0 0,0 0,0 0,0 0.09,-0.09 0,0 0,-0.09 0.09,-0.09 0,-0.09 0,0 0,-0.09 0,0 0,0 0,0 0,0 0,-0.09 0,0 0,-0.09 -0.09,-0.09 0,0 0,0 -0.09,-0.09 0,0 0,0 0,0 -0.09,0 0,0 0,-0.09 -0.09,0 0,0 -0.09,0 0,0 -0.09,0 -0.09,-0.09 -0.09,0 -0.09,0 -0.09,0 -0.09,0 z" style="fill:#7373DE;stroke:#7373DE;stroke-width:1"/>
<path d="M161.73,114.93 l-0.18,0 -0.09,0 -0.09,0 0,0 -0.09,0 -0.09,0 -0.18,0 -0.09,0 -0.09,0.09 -0.09,0 -0.09,0 0,0 0,0 0,0.09 0,0 -0.09,0 0,0.09 -0.09,0 0,0.09 -0.09,0.09 0,0.09 0,0 0,0 0,0 0,0 0,0 0,0.09 0.09,0.09 0,0 0,0.09 0.09,0.09 0,0 0.09,0 0,0 0,0 0,0.09 0,0 0.09,0 0,0 0,0 0.09,0 0.09,0.09 0,0 0.09,0 0.09,0 0.09,0 0.18,0 0.09,0 0.18,0 0.09,0 0,0 0.09,0 0.09,0 0.09,0 0.09,0 0.18,0 0.09,-0.09 0.09,0 0,0 0.09,0 0,0 0,-0.09 0,0 0.09,0 0,-0.09 0,0 0.09,-0.09 0,-0.09 0,-0.09 0,0 0,0 0,0 0,0 0,0 0,-0.09 0,-0.09 0,0 -0.09,-0.09 0,0 0,-0.09 -0.09,0 0,-0.09 0,0 0,0 -0.09,0 0,0 0,0 -0.09,0 0,0 -0.09,0 0,-0.09 -0.09,0 -0.09,0 -0.09,0 -0.09,0 -0.09,0 -0.09,0 z" style="fill:#7373DE;stroke:#7373DE;stroke-width:1"/>
<path d="M161.10,119.34 l-0.09,0 0,0 0,0 -0.09,0 0,0 -0.09,0.09 -0.09,0 -0.09,0 -0.09,0.09 0,0 0,0 0,0.09 -0.09,0 0,0.09 0,0.09 -0.09,0 0,0.09 0,0 0,0 0,0.09 0,0 0,0 0.09,0.09 0,0.09 0,0 0.09,0.09 0,0 0,0.09 0.09,0 0,0 0,0 0.09,0.09 0.09,0 0.09,0 0.09,0.09 0.09,0 0,0 0,0 0.09,0 0.09,-0.09 0,0 0.09,0 0.09,-0.09 0.09,0 0,0 0,0 0,-0.09 0.09,0 0,-0.09 0,-0.09 0.09,-0.09 0,-0.09 0,0 0,0 0,0 0,0 0,-0.09 0,0 -0.09,-0.09 0,-0.09 -0.09,0 0,-0.09 0,0 0,0 -0.09,-0.09 0,0 -0.09,0 -0.09,-0.09 -0.09,0 -0.09,0 z" style="fill:#7373DE;stroke:#7373DE;stroke-width:1"/>
<path d="M210.24,54.54 l0,1.44 1.98,0 -1.98,-1.44 z" style="fill:#7373DE;stroke:#7373DE;stroke-width:1"/>
<path d="M279.54,284.04 l-1.44,0 0,1.53 1.35,0 0.09,0 0.09,0 0.09,0 0.09,-0.09 0.09,0 0.09,0 0,0 0.09,0 0,-0.09 0.09,0 0,0 0.09,-0.09 0.09,0 0,-0.09 0,0 0,0 0,-0.09 0.09,0 0,-0.09 0,-0.09 0,-0.09 0,-0.09 0,0 0,0 0,0 0,-0.09 0,-0.09 0,-0.09 -0.09,0 0,-0.09 -0.09,-0.09 0,0 -0.09,-0.09 0,0 -0.09,-0.09 -0.09,0 -0.18,0 -0.09,-0.09 -0.18,0 z" style="fill:#7373DE;stroke:#7373DE;stroke-width:1"/>
<path d="M247.14,284.04 l0,0 0,0 0,0 0,0.09 0,0 -0.09,0.09 0,0.09 0,0.18 -0.09,0.09 0,0.18 -0.09,0.18 -0.45,1.26 1.53,0 -0.54,-1.26 0,0 0,0 0,0 0,-0.09 0,0 0,-0.09 -0.09,-0.09 0,-0.18 -0.09,-0.18 -0.09,-0.09 0,-0.18 z" style="fill:#7373DE;stroke:#7373DE;stroke-width:1"/>
<path d="M287.01,284.04 l0,0 0,0 0,0 0,0.09 0,0 0,0.09 -0.09,0.09 0,0.18 -0.09,0.09 0,0.18 -0.09,0.18 -0.45,1.26 1.53,0 -0.45,-1.26 0,0 -0.09,0 0,0 0,-0.09 0,0 0,-0.09 -0.09,-0.09 0,-0.18 -0.09,-0.18 -0.09,-0.09 0,-0.18 z" style="fill:#7373DE;stroke:#7373DE;stroke-width:1"/>
<path d="M368.73,11.79 l-0.09,0 0,0 -0.09,0 -0.09,0 0,0 -0.09,0.09 -0.18,0 -0.09,0.09 -0.09,0 -0.09,0.09 -0.09,0 -0.09,0.09 -0.09,0.09 0,0 0,0 -0.09,0.09 0,0 0,0.09 -0.09,0 0,0.09 -0.09,0.09 0,0.09 -0.09,0.09 0,0.09 0,0.09 -0.09,0.18 0,0.09 0,0.18 0,0.18 0,0 0,0 0,0 0,0.09 0,0 0,0.09 0,0.09 0,0.18 0.09,0.18 0,0.18 0.09,0.09 0,0 0,0.09 0,0 0,0 0.09,0.09 0.09,0.09 0,0.09 0.09,0.09 0.18,0.09 0.09,0.09 0,0 0,0.09 0,0 0.09,0 0.09,0 0.09,0.09 0.09,0 0.09,0.09 0.18,0 0.18,0 0.09,0 0,0 0.09,0 0,0 0.09,0 0.09,-0.09 0.18,0 0.09,-0.09 0.09,0 0.09,-0.09 0.09,0 0.09,-0.09 0.09,-0.09 0,0 0,0 0,0 0.09,-0.09 0,0 0,-0.09 0.09,-0.09 0,-0.09 0.09,-0.09 0,-0.09 0.09,-0.09 0,-0.18 0,-0.09 0.09,-0.18 0,-0.18 0,-0.18 0,0 0,0 0,-0.09 0,0 0,-0.09 0,-0.09 -0.09,-0.09 0,-0.09 0,-0.18 -0.09,-0.09 0,-0.18 -0.09,-0.09 0,-0.09 -0.09,-0.09 -0.09,-0.09 0,0 0,0 0,0 -0.09,-0.09 0,0 -0.09,-0.09 0,0 -0.09,-0.09 -0.09,0 -0.09,0 -0.09,-0.09 -0.09,0 -0.09,-0.09 -0.09,0 -0.18,0 -0.09,0 z" style="fill:#7373DE;stroke:#7373DE;stroke-width:1"/>
<path d="M391.59,11.88 l-0.99,0 -0.09,0 -0.09,0 -0.18,0 -0.09,0 -0.09,0.09 -0.09,0 0,0 -0.09,0 0,0 -0.09,0 -0.09,0.09 0,0 -0.09,0.09 -0.09,0 0,0 0,0.09 -0.09,0 0,0.09 -0.09,0.09 0,0.09 -0.09,0.09 0,0.18 0,0 0,0 -0.09,0 0,0 0,0.09 0,0 0,0.09 0,0.18 -0.09,0.09 0,0.18 0,0.18 0,0 0,0.09 0,0 0,0.09 0,0 0,0.09 0,0.09 0.09,0.09 0,0.18 0,0.18 0.09,0.09 0,0.09 0.09,0.09 0,0 0,0 0,0.09 0,0 0.09,0.09 0.09,0 0,0.09 0.18,0.09 0.09,0.09 0.09,0.09 0,0 0.09,0 0,0 0.09,0 0.09,0.09 0.18,0 0.09,0 0.18,0 0.99,0 0,-3.42 z" style="fill:#7373DE;stroke:#7373DE;stroke-width:1"/>
</g>
</svg>
