<?xml version="1.0" standalone="no"?>
<!DOCTYPE svg PUBLIC "-//W3C//DTD SVG 1.1//EN"    "http://www.w3.org/Graphics/SVG/1.1/DTD/svg11.dtd">
<svg version="1.1" xmlns="http://www.w3.org/2000/svg" preserveAspectRatio="xMinYMin" viewBox="0 0 4.50 4.50">
<g stroke-linejoin="round" fill-rule="evenodd">
<path d="M4.50,2.25 l-0,-0.04 -0,-0.04 -0,-0.04 -0,-0.04 -0,-0.04 -0,-0.04 -0,-0.04 -0.01,-0.04 -0.01,-0.04 -0.01,-0.04 -0.01,-0.04 -0.01,-0.04 -0.01,-0.04 -0.01,-0.04 -0.01,-0.04 -0.01,-0.04 -0.01,-0.04 -0.01,-0.04 -0.01,-0.04 -0.01,-0.04 -0.01,-0.04 -0.01,-0.04 -0.02,-0.04 -0.02,-0.04 -0.02,-0.04 -0.02,-0.04 -0.02,-0.04 -0.02,-0.03 -0.02,-0.03 -0.02,-0.03 -0.02,-0.03 -0.02,-0.03 -0.02,-0.03 -0.02,-0.03 -0.02,-0.03 -0.02,-0.03 -0.02,-0.03 -0.02,-0.03 -0.02,-0.03 -0.02,-0.03 -0.03,-0.03 -0.03,-0.03 -0.03,-0.03 -0.03,-0.03 -0.03,-0.03 -0.03,-0.03 -0.03,-0.03 -0.03,-0.03 -0.03,-0.03 -0.03,-0.03 -0.03,-0.02 -0.03,-0.02 -0.03,-0.02 -0.03,-0.02 -0.03,-0.02 -0.03,-0.02 -0.03,-0.02 -0.03,-0.02 -0.03,-0.02 -0.03,-0.02 -0.03,-0.02 -0.03,-0.02 -0.03,-0.02 -0.04,-0.02 -0.04,-0.02 -0.04,-0.02 -0.04,-0.02 -0.04,-0.02 -0.04,-0.01 -0.04,-0.01 -0.04,-0.01 -0.04,-0.01 -0.04,-0.01 -0.04,-0.01 -0.04,-0.01 -0.04,-0.01 -0.04,-0.01 -0.04,-0.01 -0.04,-0.01 -0.04,-0.01 -0.04,-0.01 -0.04,-0.01 -0.04,-0.01 -0.04,-0 -0.04,-0 -0.04,-0 -0.04,-0 -0.04,-0 -0.04,-0 -0.04,-0 -0.04,0 -0.04,0 -0.04,0 -0.04,0 -0.04,0 -0.04,0 -0.04,0 -0.04,0.01 -0.04,0.01 -0.04,0.01 -0.04,0.01 -0.04,0.01 -0.04,0.01 -0.04,0.01 -0.04,0.01 -0.04,0.01 -0.04,0.01 -0.04,0.01 -0.04,0.01 -0.04,0.01 -0.04,0.01 -0.04,0.01 -0.04,0.02 -0.04,0.02 -0.04,0.02 -0.04,0.02 -0.04,0.02 -0.03,0.02 -0.03,0.02 -0.03,0.02 -0.03,0.02 -0.03,0.02 -0.03,0.02 -0.03,0.02 -0.03,0.02 -0.03,0.02 -0.03,0.02 -0.03,0.02 -0.03,0.02 -0.03,0.02 -0.03,0.03 -0.03,0.03 -0.03,0.03 -0.03,0.03 -0.03,0.03 -0.03,0.03 -0.03,0.03 -0.03,0.03 -0.03,0.03 -0.03,0.03 -0.02,0.03 -0.02,0.03 -0.02,0.03 -0.02,0.03 -0.02,0.03 -0.02,0.03 -0.02,0.03 -0.02,0.03 -0.02,0.03 -0.02,0.03 -0.02,0.03 -0.02,0.03 -0.02,0.03 -0.02,0.04 -0.02,0.04 -0.02,0.04 -0.02,0.04 -0.02,0.04 -0.01,0.04 -0.01,0.04 -0.01,0.04 -0.01,0.04 -0.01,0.04 -0.01,0.04 -0.01,0.04 -0.01,0.04 -0.01,0.04 -0.01,0.04 -0.01,0.04 -0.01,0.04 -0.01,0.04 -0.01,0.04 -0.01,0.04 -0,0.04 -0,0.04 -0,0.04 -0,0.04 -0,0.04 -0,0.04 -0,0.04 0,0.04 0,0.04 0,0.04 0,0.04 0,0.04 0,0.04 0,0.04 0.01,0.04 0.01,0.04 0.01,0.04 0.01,0.04 0.01,0.04 0.01,0.04 0.01,0.04 0.01,0.04 0.01,0.04 0.01,0.04 0.01,0.04 0.01,0.04 0.01,0.04 0.01,0.04 0.01,0.04 0.02,0.04 0.02,0.04 0.02,0.04 0.02,0.04 0.02,0.04 0.02,0.03 0.02,0.03 0.02,0.03 0.02,0.03 0.02,0.03 0.02,0.03 0.02,0.03 0.02,0.03 0.02,0.03 0.02,0.03 0.02,0.03 0.02,0.03 0.02,0.03 0.03,0.03 0.03,0.03 0.03,0.03 0.03,0.03 0.03,0.03 0.03,0.03 0.03,0.03 0.03,0.03 0.03,0.03 0.03,0.03 0.03,0.02 0.03,0.02 0.03,0.02 0.03,0.02 0.03,0.02 0.03,0.02 0.03,0.02 0.03,0.02 0.03,0.02 0.03,0.02 0.03,0.02 0.03,0.02 0.03,0.02 0.04,0.02 0.04,0.02 0.04,0.02 0.04,0.02 0.04,0.02 0.04,0.01 0.04,0.01 0.04,0.01 0.04,0.01 0.04,0.01 0.04,0.01 0.04,0.01 0.04,0.01 0.04,0.01 0.04,0.01 0.04,0.01 0.04,0.01 0.04,0.01 0.04,0.01 0.04,0.01 0.04,0 0.04,0 0.04,0 0.04,0 0.04,0 0.04,0 0.04,0 0.04,-0 0.04,-0 0.04,-0 0.04,-0 0.04,-0 0.04,-0 0.04,-0 0.04,-0.01 0.04,-0.01 0.04,-0.01 0.04,-0.01 0.04,-0.01 0.04,-0.01 0.04,-0.01 0.04,-0.01 0.04,-0.01 0.04,-0.01 0.04,-0.01 0.04,-0.01 0.04,-0.01 0.04,-0.01 0.04,-0.01 0.04,-0.02 0.04,-0.02 0.04,-0.02 0.04,-0.02 0.04,-0.02 0.03,-0.02 0.03,-0.02 0.03,-0.02 0.03,-0.02 0.03,-0.02 0.03,-0.02 0.03,-0.02 0.03,-0.02 0.03,-0.02 0.03,-0.02 0.03,-0.02 0.03,-0.02 0.03,-0.02 0.03,-0.03 0.03,-0.03 0.03,-0.03 0.03,-0.03 0.03,-0.03 0.03,-0.03 0.03,-0.03 0.03,-0.03 0.03,-0.03 0.03,-0.03 0.02,-0.03 0.02,-0.03 0.02,-0.03 0.02,-0.03 0.02,-0.03 0.02,-0.03 0.02,-0.03 0.02,-0.03 0.02,-0.03 0.02,-0.03 0.02,-0.03 0.02,-0.03 0.02,-0.03 0.02,-0.04 0.02,-0.04 0.02,-0.04 0.02,-0.04 0.02,-0.04 0.01,-0.04 0.01,-0.04 0.01,-0.04 0.01,-0.04 0.01,-0.04 0.01,-0.04 0.01,-0.04 0.01,-0.04 0.01,-0.04 0.01,-0.04 0.01,-0.04 0.01,-0.04 0.01,-0.04 0.01,-0.04 0.01,-0.04 0,-0.04 0,-0.04 0,-0.04 0,-0.04 0,-0.04 0,-0.04 0,-0.04 z" style="fill:#000000;stroke:#000000;stroke-width:1"/>
</g>
</svg>
